<?xml version="1.0" encoding="utf-8"?>
<!-- Generator: Adobe Illustrator 25.0.0, SVG Export Plug-In . SVG Version: 6.00 Build 0)  -->
<svg version="1.1" id="katman_1" xmlns="http://www.w3.org/2000/svg" xmlns:xlink="http://www.w3.org/1999/xlink" x="0px" y="0px"
	 viewBox="0 0 1522.08 570.23" style="enable-background:new 0 0 1522.08 570.23;" xml:space="preserve">
<style type="text/css">
	.st0{fill:none;}
</style>
<g>
	<polygon class="st0" points="716.89,541.95 718.99,541.95 718.99,539.84 718.99,536.39 718.99,534.29 716.89,534.29 696.84,534.29 
		694.73,534.29 694.73,536.39 694.73,539.84 694.73,541.95 696.84,541.95 	"/>
	<polygon class="st0" points="696.84,551.91 694.73,551.91 694.73,554.02 694.73,558.23 694.73,560.34 696.84,560.34 718.67,560.34 
		720.78,560.34 720.78,558.23 720.78,554.02 720.78,551.91 718.67,551.91 	"/>
	<polygon class="st0" points="575.73,534.29 573.63,534.29 573.63,536.39 573.63,558.23 573.63,560.34 575.73,560.34 597.57,560.34 
		599.67,560.34 599.67,558.23 599.67,536.39 599.67,534.29 597.57,534.29 	"/>
	<polygon class="st0" points="176,104.53 176,184.53 336,184.53 336,289.53 176,289.53 176,368.53 438.5,368.53 569.8,237.23 
		437.11,104.53 	"/>
	<polygon class="st0" points="86.7,534.29 84.6,534.29 84.6,536.39 84.6,558.23 84.6,560.34 86.7,560.34 108.54,560.34 
		110.65,560.34 110.65,558.23 110.65,536.39 110.65,534.29 108.54,534.29 	"/>
	<rect x="982" y="-0.47" width="105" height="475"/>
	<polygon points="1370.08,0 1265.08,0 1112.08,0 1112.08,105 1265.08,105 1265.08,475 1370.08,475 1370.08,105 1522.08,105 
		1522.08,0 	"/>
	<path d="M111.16,524.33H74.7v45.97h36.45c2.59,0,4.83-0.93,6.7-2.78c1.87-1.85,2.81-4.08,2.81-6.67v-27.07
		c0-2.6-0.94-4.82-2.81-6.67C115.99,525.25,113.75,524.33,111.16,524.33z M110.65,536.39v21.83v2.11h-2.11H86.7H84.6v-2.11v-21.83
		v-2.11h2.11h21.83h2.11V536.39z"/>
	<polygon points="151.57,570.29 194.02,570.29 194.02,560.34 161.59,560.34 161.59,552.29 187.7,552.29 187.7,542.33 161.59,542.33 
		161.59,534.29 194.02,534.29 194.02,524.33 151.57,524.33 	"/>
	<path d="M260.36,524.33h-27.07c-2.6,0-4.82,0.93-6.67,2.78s-2.78,4.08-2.78,6.67v9.07c0,2.6,0.93,4.82,2.78,6.67
		c1.85,1.85,4.08,2.78,6.67,2.78h24.39h2.11v2.11v3.83v2.11h-2.11h-21.83h-2.11v-2.11v-1.66h-9.9v4.28c0,2.6,0.93,4.82,2.78,6.67
		s4.08,2.78,6.67,2.78h27.07c2.55,0,4.77-0.93,6.64-2.78s2.81-4.08,2.81-6.67v-9.07c0-2.59-0.94-4.82-2.81-6.67
		s-4.09-2.78-6.64-2.78h-24.51h-2.11v-2.11v-3.83v-2.11h2.11h21.83h2.11v2.11v1.66h10.02v-4.28c0-2.6-0.94-4.82-2.81-6.67
		S262.91,524.33,260.36,524.33z"/>
	<rect x="300.19" y="524.33" width="9.77" height="45.97"/>
	<path d="M374.18,524.33h-27.01c-2.6,0-4.82,0.93-6.67,2.78s-2.78,4.08-2.78,6.67v27.07c0,2.6,0.93,4.82,2.78,6.67
		s4.07,2.78,6.67,2.78h27.01c2.6,0,4.83-0.93,6.7-2.78c1.87-1.85,2.81-4.08,2.81-6.67v-17.37h-19.98v9.96h9.96v4.79v2.11h-2.11
		h-21.83h-2.11v-2.11v-21.83v-2.11h2.11h21.83h2.11v2.11v1.72h10.02v-4.34c0-2.6-0.94-4.82-2.81-6.67
		C379.01,525.25,376.78,524.33,374.18,524.33z"/>
	<polygon points="450.28,554.97 424.56,524.33 414.34,524.33 414.34,570.29 424.24,570.29 424.24,539.52 450.09,570.29 
		460.31,570.29 460.31,524.33 450.28,524.33 	"/>
	<polygon points="491.21,570.29 533.66,570.29 533.66,560.34 501.23,560.34 501.23,552.29 527.34,552.29 527.34,542.33 
		501.23,542.33 501.23,534.29 533.66,534.29 533.66,524.33 491.21,524.33 	"/>
	<path d="M600.18,524.33h-36.45v45.97h36.45c2.59,0,4.83-0.93,6.7-2.78c1.87-1.85,2.81-4.08,2.81-6.67v-27.07
		c0-2.6-0.94-4.82-2.81-6.67C605.01,525.25,602.78,524.33,600.18,524.33z M599.67,536.39v21.83v2.11h-2.11h-21.83h-2.11v-2.11
		v-21.83v-2.11h2.11h21.83h2.11V536.39z"/>
	<path d="M728.57,545.33c0.17-0.43,0.29-0.88,0.35-1.37c0.06-0.49,0.1-1.01,0.1-1.56v-8.62c0-2.6-0.94-4.82-2.81-6.67
		c-1.87-1.85-4.09-2.78-6.64-2.78h-34.73v45.97h36.45c2.6,0,4.83-0.93,6.7-2.78s2.81-4.08,2.81-6.67v-9.51
		c0-1.06-0.21-2.13-0.64-3.19C729.74,547.08,729.21,546.14,728.57,545.33z M694.73,539.84v-3.45v-2.11h2.11h20.05h2.11v2.11v3.45
		v2.11h-2.11h-20.05h-2.11V539.84z M720.78,554.02v4.21v2.11h-2.11h-21.83h-2.11v-2.11v-4.21v-2.11h2.11h21.83h2.11V554.02z"/>
	<polygon points="782.52,542.46 768.09,524.33 756.28,524.33 777.54,553.12 777.54,570.29 787.5,570.29 787.5,553.19 808.82,524.33 
		796.88,524.33 	"/>
	<polygon points="956.16,-0.64 807.67,-0.64 708.35,98.68 782.6,172.93 	"/>
	<path d="M644.05,162.98L481.23,0.16L481,0.39v-0.86H176H71v105v80H0v105h71v79v105h105h305v-0.02c0.33,0.33,0.51,0.5,0.51,0.5
		c11.32-10.63,107.91-108.41,162.27-162.81l258.43,258.43l149.15,0.66L718.3,237.23L644.05,162.98z M438.5,368.53H176v-79h160v-105
		H176v-80h261.11l132.7,132.7L438.5,368.53z"/>
</g>
</svg>
